<?xml version="1.0" ?><svg height="292px" version="1.1" viewBox="0 0 298 292" width="298px" xmlns="http://www.w3.org/2000/svg" xmlns:xlink="http://www.w3.org/1999/xlink"><title/><desc/><defs><path d="M273.676209,172.643112 L290.85142,172.721307 C290.41956,77.8652397 213.173432,0.61911223 118.317365,0.187252457 L118.39556,17.3624628 C203.766021,17.7511366 273.287535,87.2726513 273.676209,172.643112 L273.676209,172.643112 L273.676209,172.643112 Z" id="path-1"/><filter filterUnits="objectBoundingBox" height="200%" id="filter-2" width="200%" x="-50%" y="-50%"><feOffset dx="0" dy="3" in="SourceAlpha" result="shadowOffsetOuter1"/><feGaussianBlur in="shadowOffsetOuter1" result="shadowBlurOuter1" stdDeviation="1.5"/><feColorMatrix in="shadowBlurOuter1" type="matrix" values="0 0 0 0 0   0 0 0 0 0   0 0 0 0 0  0 0 0 0.5 0"/></filter><path d="M240.956411,172.609724 L254.762337,172.606522 C254.78002,96.3584981 192.983118,34.5615962 116.735094,34.5792784 L116.731892,48.3852044 C185.355114,48.3692904 240.972325,103.986502 240.956411,172.609724 L240.956411,172.609724 L240.956411,172.609724 Z" id="path-3"/><filter filterUnits="objectBoundingBox" height="200%" id="filter-4" width="200%" x="-50%" y="-50%"><feOffset dx="0" dy="3" in="SourceAlpha" result="shadowOffsetOuter1"/><feGaussianBlur in="shadowOffsetOuter1" result="shadowBlurOuter1" stdDeviation="1.5"/><feColorMatrix in="shadowBlurOuter1" type="matrix" values="0 0 0 0 0   0 0 0 0 0   0 0 0 0 0  0 0 0 0.5 0"/></filter><path d="M215.301301,176.259671 L226.239978,176.238722 C226.355672,115.826078 177.475336,66.9457417 117.062691,67.0614355 L117.041743,78.0001124 C171.413123,77.895988 215.405426,121.888291 215.301301,176.259671 L215.301301,176.259671 L215.301301,176.259671 Z" id="path-5"/><filter filterUnits="objectBoundingBox" height="200%" id="filter-6" width="200%" x="-50%" y="-50%"><feOffset dx="0" dy="3" in="SourceAlpha" result="shadowOffsetOuter1"/><feGaussianBlur in="shadowOffsetOuter1" result="shadowBlurOuter1" stdDeviation="1.5"/><feColorMatrix in="shadowBlurOuter1" type="matrix" values="0 0 0 0 0   0 0 0 0 0   0 0 0 0 0  0 0 0 0.5 0"/></filter><path d="M144.528025,241.262956 C125.753314,225.489475 105.45598,207.835705 92.2081528,194.587878 C78.960326,181.340052 61.3065566,161.042717 45.5330754,142.268007 L53.6689055,134.132176 L62.2948405,125.506241 C64.6372271,123.163855 64.6330045,119.369063 62.2898438,117.025903 L28.348773,83.0848307 C26.0115014,80.7475591 22.2088353,80.7394329 19.8684341,83.0798341 L7.40303667,95.5452315 C7.38710652,95.5611617 7.3712849,95.577159 7.35557181,95.5932226 C7.35540501,95.5930123 7.35533906,95.5929291 7.35533906,95.5929291 C-12.1708755,115.119144 13.1557236,172.103992 63.9238816,222.87215 C114.692039,273.640308 171.676888,298.966907 191.203102,279.440692 C191.203102,279.440692 191.203019,279.440626 191.202853,279.440494 C191.218872,279.424746 191.23487,279.408925 191.2508,279.392995 L203.716197,266.927597 C206.056598,264.587196 206.048472,260.78453 203.711201,258.447258 L169.770129,224.506187 C167.426968,222.163027 163.632176,222.158804 161.28979,224.501191 L152.663855,233.127126 L144.528025,241.262956 L144.528025,241.262956 Z" id="path-7"/><filter filterUnits="objectBoundingBox" height="200%" id="filter-8" width="200%" x="-50%" y="-50%"><feOffset dx="0" dy="2" in="SourceAlpha" result="shadowOffsetOuter1"/><feGaussianBlur in="shadowOffsetOuter1" result="shadowBlurOuter1" stdDeviation="2"/><feColorMatrix in="shadowBlurOuter1" type="matrix" values="0 0 0 0 0   0 0 0 0 0   0 0 0 0 0  0 0 0 0.5 0"/></filter></defs><g fill="none" fill-rule="evenodd" id="Page-1" stroke="none" stroke-width="1"><g id="phone" transform="translate(4.000000, 0.000000)"><g id="Combined-Shape"><use fill="black" fill-opacity="1" filter="url(#filter-2)" xlink:href="#path-1"/><use fill="#67ADD5" fill-rule="evenodd" xlink:href="#path-1"/></g><g id="Combined-Shape"><use fill="black" fill-opacity="1" filter="url(#filter-4)" xlink:href="#path-3"/><use fill="#67ADD5" fill-rule="evenodd" xlink:href="#path-3"/></g><g id="Combined-Shape"><use fill="black" fill-opacity="1" filter="url(#filter-6)" xlink:href="#path-5"/><use fill="#67ADD5" fill-rule="evenodd" xlink:href="#path-5"/></g><path d="M65.3380951,122.462987 C72.3675324,115.43355 68.5685425,100.23759 56.8528137,88.5218613 C45.137085,76.8061325 29.9411255,73.0071427 22.9116882,80.0365799 C15.882251,87.0660172 19.6812409,102.261977 31.3969696,113.977705 C43.1126984,125.693434 58.3086579,129.492424 65.3380951,122.462987 L65.3380951,122.462987 Z" fill="#FBF0B8" id="Oval-60"/><path d="M164.333044,221.457936 C171.362482,214.428499 186.558441,218.227489 198.27417,229.943218 C209.989899,241.658946 213.788889,256.854906 206.759451,263.884343 C199.730014,270.91378 184.534055,267.11479 172.818326,255.399062 C161.102597,243.683333 157.303607,228.487373 164.333044,221.457936 L164.333044,221.457936 Z" fill="#FBF0B8" id="Oval-60"/><g id="Combined-Shape"><use fill="black" fill-opacity="1" filter="url(#filter-8)" xlink:href="#path-7"/><use fill="#697F9B" fill-rule="evenodd" xlink:href="#path-7"/></g></g></g></svg>