<?xml version="1.0" encoding="iso-8859-1"?>
<!-- Generator: Adobe Illustrator 19.0.0, SVG Export Plug-In . SVG Version: 6.00 Build 0)  -->
<svg version="1.1" id="Layer_1" xmlns="http://www.w3.org/2000/svg" xmlns:xlink="http://www.w3.org/1999/xlink" x="0px" y="0px"
	 viewBox="0 0 512 512" style="enable-background:new 0 0 512 512;" xml:space="preserve">
<path style="fill:#A3AAAF;" d="M238.345,300.138c-5.297,0-8.828-3.531-8.828-8.828v-61.793c0-19.421,15.89-35.31,35.31-35.31
	c73.269-6.179,185.379-15.89,192.441-17.655c15.89-3.531,28.248-18.538,28.248-35.31v-35.31c0-19.421-15.89-35.31-35.31-35.31
	c-5.297,0-8.828-3.531-8.828-8.828s3.531-8.828,8.828-8.828c29.131,0,52.966,23.834,52.966,52.966v35.31
	c0,25.6-17.655,47.669-42.372,52.966c-7.945,1.766-164.193,15.007-195.09,17.655c-10.593,0-18.538,7.945-18.538,17.655v61.793
	C247.172,296.607,243.641,300.138,238.345,300.138"/>
<path style="fill:#C17C3E;" d="M300.138,291.31H176.552l8.828,44.138h17.655V476.69c0,19.421,15.89,35.31,35.31,35.31
	s35.31-15.89,35.31-35.31V335.448h17.655L300.138,291.31z"/>
<path style="fill:#ECE8D8;" d="M35.31,70.621v35.31c0,9.71,7.945,17.655,17.655,17.655h379.586c9.71,0,17.655-7.945,17.655-17.655
	V17.655c0-9.71-7.945-17.655-17.655-17.655H52.966C43.255,0,35.31,7.945,35.31,17.655v35.31V70.621z"/>
<path style="fill:#A3AAAF;" d="M17.655,52.966c-5.297,0-8.828,3.531-8.828,8.828s3.531,8.828,8.828,8.828H35.31V52.966H17.655z"/>
<g>
	<path style="fill:#C9C3A7;" d="M70.621,97.103c-1.766,0-4.414-0.883-5.297-1.766c-3.531-3.531-4.414-8.828-0.883-12.359
		l44.138-52.966c3.531-3.531,8.828-4.414,12.359-0.883c3.531,3.531,4.414,8.828,0.883,12.359L77.683,94.455
		C75.917,96.221,73.269,97.103,70.621,97.103"/>
	<path style="fill:#C9C3A7;" d="M132.414,97.103c-1.766,0-4.414-0.883-5.297-1.766c-3.531-3.531-4.414-8.828-0.883-12.359
		l44.138-52.966c3.531-3.531,8.828-4.414,12.359-0.883c3.531,3.531,4.414,8.828,0.883,12.359l-44.138,52.966
		C137.71,96.221,135.062,97.103,132.414,97.103"/>
	<path style="fill:#C9C3A7;" d="M194.207,97.103c-1.766,0-4.414-0.883-5.297-1.766c-3.531-3.531-4.414-8.828-0.883-12.359
		l44.138-52.966c3.531-3.531,8.828-4.414,12.359-0.883c3.531,3.531,4.414,8.828,0.883,12.359l-44.138,52.966
		C199.503,96.221,196.855,97.103,194.207,97.103"/>
	<path style="fill:#C9C3A7;" d="M256,97.103c-1.766,0-4.414-0.883-5.297-1.766c-3.531-3.531-4.414-8.828-0.883-12.359l44.138-52.966
		c3.531-3.531,8.828-4.414,12.359-0.883c3.531,3.531,4.414,8.828,0.883,12.359l-44.138,52.966
		C261.297,96.221,258.648,97.103,256,97.103"/>
	<path style="fill:#C9C3A7;" d="M317.793,97.103c-1.766,0-4.414-0.883-5.297-1.766c-3.531-3.531-4.414-8.828-0.883-12.359
		l44.138-52.966c3.531-3.531,8.828-4.414,12.359-0.883s4.414,8.828,0.883,12.359l-44.138,52.966
		C323.09,96.221,320.441,97.103,317.793,97.103"/>
	<path style="fill:#C9C3A7;" d="M370.759,97.103c-1.766,0-4.414-0.883-5.297-1.766c-3.531-3.531-4.414-8.828-0.883-12.359
		l44.138-52.966c3.531-3.531,8.828-4.414,12.359-0.883s4.414,8.828,0.883,12.359l-44.138,52.966
		C376.055,96.221,373.407,97.103,370.759,97.103"/>
</g>
<path style="fill:#368CD6;" d="M158.897,123.586H52.966v61.793c0,15.007,11.476,26.483,26.483,26.483s26.483-11.476,26.483-26.483
	V256c0,15.007,11.476,26.483,26.483,26.483s26.483-11.476,26.483-26.483v-92.69c0,12.359,9.71,22.069,22.069,22.069
	s22.069-9.71,22.069-22.069v-39.724H158.897z"/>
<g>
	<path style="fill:#9E5A23;" d="M229.517,423.724h-26.483v17.655h26.483c5.297,0,8.828-3.531,8.828-8.828
		S234.814,423.724,229.517,423.724"/>
	<path style="fill:#9E5A23;" d="M238.345,467.862c0-5.297-3.531-8.828-8.828-8.828h-26.483v17.655h26.483
		C234.814,476.69,238.345,473.159,238.345,467.862"/>
</g>
<g>
</g>
<g>
</g>
<g>
</g>
<g>
</g>
<g>
</g>
<g>
</g>
<g>
</g>
<g>
</g>
<g>
</g>
<g>
</g>
<g>
</g>
<g>
</g>
<g>
</g>
<g>
</g>
<g>
</g>
</svg>
